<svg xmlns="http://www.w3.org/2000/svg" viewBox="0 0 1024 1024" width="1024" height="1024">
  <defs>
    <linearGradient id="ink" gradientUnits="userSpaceOnUse" x1="0" y1="250" x2="0" y2="774">
      <stop stop-color="#FFFFFF"/><stop offset="1" stop-color="#AEB3BD"/>
    </linearGradient>
  </defs>
  <rect x="200" y="250" width="624" height="524" rx="70" fill="url(#ink)"/>
  <g fill="#6B717C"><circle cx="262" cy="310" r="18"/><circle cx="314" cy="310" r="18"/><circle cx="366" cy="310" r="18"/></g>
  <rect x="420" y="292" width="350" height="36" rx="18" fill="#8E949F"/>
  <rect x="236" y="364" width="552" height="374" rx="34" fill="#12151B"/>
  <rect x="282" y="410" width="250" height="34" rx="12" fill="#FFFFFF"/>
  <rect x="282" y="460" width="190" height="34" rx="12" fill="#FFFFFF"/>
  <rect x="282" y="520" width="120" height="44" rx="22" fill="#3B82F6"/>
  <circle cx="660" cy="590" r="92" fill="#3DDC97"/>
  <path d="M700 545 a60 60 0 1 0 14 58" fill="none" stroke="#0B0D0F" stroke-width="22" stroke-linecap="round"/>
  <path d="M690 520 l40 30 l-48 18 Z" fill="#0B0D0F"/>
</svg>
